<?xml version="1.0" encoding="UTF-8" standalone="no"?>
<!-- Created with Inkscape (http://www.inkscape.org/) -->

<svg
   xmlns:dc="http://purl.org/dc/elements/1.1/"
   xmlns:cc="http://creativecommons.org/ns#"
   xmlns:rdf="http://www.w3.org/1999/02/22-rdf-syntax-ns#"
   xmlns:svg="http://www.w3.org/2000/svg"
   xmlns="http://www.w3.org/2000/svg"
   xmlns:sodipodi="http://sodipodi.sourceforge.net/DTD/sodipodi-0.dtd"
   xmlns:inkscape="http://www.inkscape.org/namespaces/inkscape"
   width="370"
   height="94"
   viewBox="0 0 97.895835 24.870815"
   version="1.1"
   id="svg8"
   sodipodi:docname="logo_mobile.svg"
   inkscape:version="0.92.3 (2405546, 2018-03-11)">
  <defs
     id="defs2" />
  <sodipodi:namedview
     id="base"
     pagecolor="#ffffff"
     bordercolor="#666666"
     borderopacity="1.0"
     inkscape:pageopacity="0.0"
     inkscape:pageshadow="2"
     inkscape:zoom="1.979899"
     inkscape:cx="147.04992"
     inkscape:cy="31.954423"
     inkscape:document-units="mm"
     inkscape:current-layer="text21"
     showgrid="false"
     inkscape:window-width="2498"
     inkscape:window-height="1057"
     inkscape:window-x="-8"
     inkscape:window-y="-8"
     inkscape:window-maximized="1"
     fit-margin-top="0"
     fit-margin-left="0"
     fit-margin-right="0"
     fit-margin-bottom="0"
     units="px" />
  <metadata
     id="metadata5">
    <rdf:RDF>
      <cc:Work
         rdf:about="">
        <dc:format>image/svg+xml</dc:format>
        <dc:type
           rdf:resource="http://purl.org/dc/dcmitype/StillImage" />
        <dc:title></dc:title>
      </cc:Work>
    </rdf:RDF>
  </metadata>
  <g
     inkscape:label="Layer 1"
     inkscape:groupmode="layer"
     id="layer1"
     transform="translate(-45.661885,-32.377113)">
    <g
       aria-label="Honey Waffle"
       style="font-style:normal;font-variant:normal;font-weight:bold;font-stretch:normal;font-size:25.39999962px;line-height:1.25;font-family:BenchNine;-inkscape-font-specification:'BenchNine, Bold';font-variant-ligatures:normal;font-variant-caps:normal;font-variant-numeric:normal;font-feature-settings:normal;text-align:start;letter-spacing:0px;word-spacing:0px;writing-mode:lr-tb;text-anchor:start;fill:#000000;fill-opacity:1;stroke:none;stroke-width:0.26458332"
       id="text21">
      <g
         aria-label="INKBLOT 
TEST"
         style="font-style:normal;font-variant:normal;font-weight:bold;font-stretch:normal;font-size:14.6680975px;line-height:1.25;font-family:'Times New Roman';-inkscape-font-specification:'Times New Roman, Bold';font-variant-ligatures:normal;font-variant-caps:normal;font-variant-numeric:normal;font-feature-settings:normal;text-align:start;letter-spacing:0px;word-spacing:0px;writing-mode:lr-tb;text-anchor:start;fill:#fffffa;fill-opacity:1;stroke:none;stroke-width:0.10036898"
         id="text826">
        <path
           d="m 52.569578,43.133164 v 0.265 h -5.07797 v -0.265 h 0.322297 q 0.422568,0 0.680405,-0.150405 0.186216,-0.10027 0.286487,-0.343783 0.07878,-0.171892 0.07878,-0.902432 V 35.3479 q 0,-0.744864 -0.07878,-0.931081 -0.07878,-0.186216 -0.322297,-0.322297 -0.236352,-0.143243 -0.644595,-0.143243 h -0.322297 v -0.265 h 5.07797 v 0.265 h -0.322297 q -0.422568,0 -0.680405,0.150406 -0.186216,0.10027 -0.293649,0.343783 -0.07878,0.171892 -0.07878,0.902432 v 6.388644 q 0,0.744864 0.07878,0.93108 0.08595,0.186216 0.322297,0.329459 0.243514,0.136081 0.651757,0.136081 z"
           style="font-style:normal;font-variant:normal;font-weight:bold;font-stretch:normal;font-size:14.6680975px;font-family:'Times New Roman';-inkscape-font-specification:'Times New Roman, Bold';font-variant-ligatures:normal;font-variant-caps:normal;font-variant-numeric:normal;font-feature-settings:normal;text-align:start;writing-mode:lr-tb;text-anchor:start;fill:#fffffa;fill-opacity:1;stroke-width:0.10036898"
           id="path941" />
        <path
           d="m 56.551737,33.686279 4.791483,6.023374 v -4.175537 q 0,-0.873783 -0.250676,-1.181756 -0.343783,-0.415405 -1.153107,-0.401081 v -0.265 h 3.208647 v 0.265 q -0.615946,0.07878 -0.830811,0.207703 -0.207702,0.121756 -0.329459,0.408243 -0.114594,0.279324 -0.114594,0.966891 v 8.086075 h -0.243514 l -6.567698,-8.086075 v 6.173779 q 0,0.837973 0.379595,1.131621 0.386756,0.293648 0.880945,0.293648 h 0.229189 v 0.265 h -3.444998 v -0.265 q 0.802162,-0.0072 1.117297,-0.329459 0.315135,-0.322297 0.315135,-1.09581 V 34.853711 L 54.331468,34.595873 Q 54.023496,34.209117 53.787144,34.08736 53.550793,33.965604 53.106739,33.951279 v -0.265 z"
           style="font-style:normal;font-variant:normal;font-weight:bold;font-stretch:normal;font-size:14.6680975px;font-family:'Times New Roman';-inkscape-font-specification:'Times New Roman, Bold';font-variant-ligatures:normal;font-variant-caps:normal;font-variant-numeric:normal;font-feature-settings:normal;text-align:start;writing-mode:lr-tb;text-anchor:start;fill:#fffffa;fill-opacity:1;stroke-width:0.10036898"
           id="path943" />
        <path
           d="m 69.608349,37.403439 3.416349,4.275808 q 0.723378,0.902431 1.246215,1.224728 0.379595,0.229189 0.802162,0.229189 v 0.265 h -5.056483 v -0.265 q 0.479865,-0.04297 0.615946,-0.150405 0.143243,-0.107432 0.143243,-0.265 0,-0.30081 -0.658919,-1.13162 l -2.227431,-2.800404 -0.358107,0.300811 v 2.649998 q 0,0.759188 0.08594,0.945405 0.08595,0.186216 0.32946,0.322297 0.243513,0.128918 0.780675,0.128918 v 0.265 h -4.898916 v -0.265 h 0.322297 q 0.422568,0 0.680405,-0.150405 0.186216,-0.10027 0.286487,-0.343783 0.07878,-0.171892 0.07878,-0.902432 V 35.3479 q 0,-0.744864 -0.07878,-0.931081 -0.07878,-0.186216 -0.322297,-0.322297 -0.236352,-0.143243 -0.644595,-0.143243 h -0.322297 v -0.265 h 4.834456 v 0.265 q -0.494188,0 -0.752026,0.143243 -0.186216,0.100271 -0.293649,0.336622 -0.08594,0.179054 -0.08594,0.916756 v 3.02243 l 3.602565,-2.914998 q 0.752026,-0.608783 0.752026,-0.974053 0,-0.272162 -0.307973,-0.42973 -0.157567,-0.07878 -0.780675,-0.10027 v -0.265 h 3.788781 v 0.265 q -0.508513,0.03581 -0.802161,0.186216 -0.286487,0.143243 -1.332162,0.988378 z"
           style="font-style:normal;font-variant:normal;font-weight:bold;font-stretch:normal;font-size:14.6680975px;font-family:'Times New Roman';-inkscape-font-specification:'Times New Roman, Bold';font-variant-ligatures:normal;font-variant-caps:normal;font-variant-numeric:normal;font-feature-settings:normal;text-align:start;writing-mode:lr-tb;text-anchor:start;fill:#fffffa;fill-opacity:1;stroke-width:0.10036898"
           id="path945" />
        <path
           d="m 81.425909,38.248573 q 1.382296,0.322297 1.940945,0.780676 0.802161,0.651756 0.802161,1.690269 0,1.09581 -0.880945,1.812025 -1.081486,0.866621 -3.144187,0.866621 h -4.934726 v -0.265 q 0.673243,0 0.909594,-0.121756 0.243513,-0.128919 0.336621,-0.329459 0.10027,-0.200541 0.10027,-0.988378 v -6.302698 q 0,-0.787837 -0.10027,-0.988378 -0.09311,-0.207702 -0.336621,-0.329459 -0.243514,-0.121757 -0.909594,-0.121757 v -0.265 h 4.655402 q 1.668782,0 2.363512,0.300811 0.694729,0.293648 1.09581,0.888107 0.40108,0.587297 0.40108,1.253378 0,0.701891 -0.508513,1.253377 -0.508513,0.544324 -1.790539,0.866621 z m -2.607025,-0.193378 q 1.017026,0 1.496891,-0.229189 0.487026,-0.229189 0.744864,-0.644594 0.257838,-0.415405 0.257838,-1.059999 0,-0.644594 -0.257838,-1.052837 -0.250675,-0.415405 -0.723378,-0.63027 -0.472702,-0.214865 -1.518377,-0.207703 z m 0,0.558648 v 3.115539 l -0.0072,0.358108 q 0,0.386756 0.193378,0.587296 0.20054,0.193379 0.587297,0.193379 0.572972,0 1.052837,-0.250676 0.487027,-0.257837 0.744864,-0.737702 0.257838,-0.487027 0.257838,-1.081486 0,-0.680405 -0.315135,-1.217566 -0.315135,-0.544324 -0.866621,-0.759189 -0.551486,-0.214865 -1.647296,-0.207703 z"
           style="font-style:normal;font-variant:normal;font-weight:bold;font-stretch:normal;font-size:14.6680975px;font-family:'Times New Roman';-inkscape-font-specification:'Times New Roman, Bold';font-variant-ligatures:normal;font-variant-caps:normal;font-variant-numeric:normal;font-feature-settings:normal;text-align:start;writing-mode:lr-tb;text-anchor:start;fill:#fffffa;fill-opacity:1;stroke-width:0.10036898"
           id="path947" />
        <path
           d="m 93.959682,39.988978 -0.36527,3.409186 h -8.623237 v -0.265 h 0.322297 q 0.422567,0 0.680405,-0.150405 0.186216,-0.10027 0.286486,-0.343783 0.07878,-0.171892 0.07878,-0.902432 V 35.3479 q 0,-0.744864 -0.07878,-0.931081 -0.07878,-0.186216 -0.322297,-0.322297 -0.236351,-0.143243 -0.644594,-0.143243 h -0.322297 v -0.265 h 5.178239 v 0.265 h -0.422567 q -0.422567,0 -0.680405,0.150406 -0.186216,0.10027 -0.293648,0.343783 -0.07878,0.171892 -0.07878,0.902432 v 6.188103 q 0,0.744865 0.08595,0.952567 0.08595,0.200541 0.336621,0.300811 0.179054,0.06446 0.866621,0.06446 h 0.809324 q 0.773513,0 1.289188,-0.272162 0.515675,-0.272162 0.888108,-0.859458 0.379594,-0.587297 0.716215,-1.733242 z"
           style="font-style:normal;font-variant:normal;font-weight:bold;font-stretch:normal;font-size:14.6680975px;font-family:'Times New Roman';-inkscape-font-specification:'Times New Roman, Bold';font-variant-ligatures:normal;font-variant-caps:normal;font-variant-numeric:normal;font-feature-settings:normal;text-align:start;writing-mode:lr-tb;text-anchor:start;fill:#fffffa;fill-opacity:1;stroke-width:0.10036898"
           id="path949" />
        <path
           d="m 100.16211,33.550198 q 2.32054,-0.08595 3.7673,1.353648 1.45391,1.439594 1.45391,3.602565 0,1.847837 -1.08148,3.251619 -1.43243,1.862161 -4.04662,1.862161 -2.62135,0 -4.053781,-1.776215 -1.131621,-1.403783 -1.131621,-3.330403 0,-2.162971 1.468242,-3.602565 1.475404,-1.446755 3.62405,-1.36081 z m 0.0859,0.458378 q -1.332164,0 -2.026893,1.36081 -0.565811,1.117297 -0.565811,3.208647 0,2.485268 0.873784,3.674186 0.608783,0.83081 1.70459,0.83081 0.73771,0 1.23189,-0.358107 0.63027,-0.458379 0.98122,-1.461081 0.35095,-1.009864 0.35095,-2.628511 0,-1.92662 -0.35811,-2.879187 -0.35811,-0.959729 -0.91676,-1.353648 -0.55148,-0.393919 -1.27486,-0.393919 z"
           style="font-style:normal;font-variant:normal;font-weight:bold;font-stretch:normal;font-size:14.6680975px;font-family:'Times New Roman';-inkscape-font-specification:'Times New Roman, Bold';font-variant-ligatures:normal;font-variant-caps:normal;font-variant-numeric:normal;font-feature-settings:normal;text-align:start;writing-mode:lr-tb;text-anchor:start;fill:#fffffa;fill-opacity:1;stroke-width:0.10036898"
           id="path951" />
        <path
           d="m 115.15251,33.686279 v 2.628512 h -0.25784 q -0.22919,-0.909594 -0.50852,-1.303513 -0.27932,-0.40108 -0.76635,-0.637432 -0.27216,-0.128918 -0.95256,-0.128918 h -0.72338 v 7.491616 q 0,0.744864 0.0788,0.93108 0.086,0.186216 0.3223,0.329459 0.24351,0.136081 0.65892,0.136081 h 0.3223 v 0.265 h -5.08514 v -0.265 h 0.3223 q 0.42257,0 0.68041,-0.150405 0.18621,-0.10027 0.29364,-0.343783 0.0788,-0.171892 0.0788,-0.902432 v -7.491616 h -0.70189 q -0.98122,0 -1.42527,0.415405 -0.62311,0.580134 -0.78784,1.654458 H 106.429 v -2.628512 z"
           style="font-style:normal;font-variant:normal;font-weight:bold;font-stretch:normal;font-size:14.6680975px;font-family:'Times New Roman';-inkscape-font-specification:'Times New Roman, Bold';font-variant-ligatures:normal;font-variant-caps:normal;font-variant-numeric:normal;font-feature-settings:normal;text-align:start;writing-mode:lr-tb;text-anchor:start;fill:#fffffa;fill-opacity:1;stroke-width:0.10036898"
           id="path953" />
        <path
           d="m 56.451467,46.3814 v 2.628512 H 56.193629 Q 55.96444,48.100318 55.685116,47.706399 55.405792,47.305319 54.918765,47.068968 54.646603,46.940049 53.966198,46.940049 H 53.24282 v 7.491616 q 0,0.744864 0.07878,0.93108 0.08595,0.186216 0.322297,0.32946 0.243514,0.136081 0.658919,0.136081 h 0.322297 v 0.264999 h -5.085132 v -0.264999 h 0.322297 q 0.422568,0 0.680405,-0.150406 0.186216,-0.10027 0.293649,-0.343783 0.07878,-0.171892 0.07878,-0.902432 v -7.491616 h -0.701891 q -0.981216,0 -1.425269,0.415405 -0.623108,0.580135 -0.787838,1.654458 H 47.72796 V 46.3814 Z"
           style="font-style:normal;font-variant:normal;font-weight:bold;font-stretch:normal;font-size:14.6680975px;font-family:'Times New Roman';-inkscape-font-specification:'Times New Roman, Bold';font-variant-ligatures:normal;font-variant-caps:normal;font-variant-numeric:normal;font-feature-settings:normal;text-align:start;writing-mode:lr-tb;text-anchor:start;fill:#fffffa;fill-opacity:1;stroke-width:0.10036898"
           id="path955" />
        <path
           d="m 60.992274,46.940049 v 3.95351 h 0.193378 q 0.923919,0 1.339324,-0.580134 0.415405,-0.580135 0.529999,-1.711756 h 0.272162 v 5.085132 h -0.272162 q -0.08595,-0.830811 -0.36527,-1.36081 -0.272162,-0.53 -0.637432,-0.709054 -0.36527,-0.186216 -1.059999,-0.186216 v 2.735944 q 0,0.802162 0.06446,0.981216 0.07162,0.179054 0.257838,0.293648 0.186216,0.114595 0.601621,0.114595 h 0.580135 q 1.36081,0 2.177296,-0.63027 0.823648,-0.63027 1.181756,-1.919458 h 0.264999 l -0.436891,3.086889 h -8.394048 v -0.264999 h 0.322297 q 0.422567,0 0.680405,-0.150406 0.186216,-0.10027 0.286486,-0.343783 0.07878,-0.171892 0.07878,-0.902432 v -6.388644 q 0,-0.658919 -0.03581,-0.809324 -0.07162,-0.250675 -0.265,-0.386756 Q 58.084438,46.6464 57.611736,46.6464 h -0.322297 v -0.265 h 8.129048 v 2.872025 H 65.146325 Q 64.938623,48.200588 64.559028,47.74221 64.186596,47.283832 63.499029,47.068968 63.097948,46.940049 61.994976,46.940049 Z"
           style="font-style:normal;font-variant:normal;font-weight:bold;font-stretch:normal;font-size:14.6680975px;font-family:'Times New Roman';-inkscape-font-specification:'Times New Roman, Bold';font-variant-ligatures:normal;font-variant-caps:normal;font-variant-numeric:normal;font-feature-settings:normal;text-align:start;writing-mode:lr-tb;text-anchor:start;fill:#fffffa;fill-opacity:1;stroke-width:0.10036898"
           id="path957" />
        <path
           d="m 73.683616,46.159374 0.07878,3.237295 h -0.293649 q -0.207702,-1.217567 -1.024188,-1.955269 -0.809324,-0.744865 -1.754729,-0.744865 -0.73054,0 -1.160269,0.393919 -0.422567,0.386756 -0.422567,0.89527 0,0.322297 0.150405,0.572972 0.207703,0.336622 0.666081,0.666081 0.336621,0.236351 1.554188,0.837972 1.704593,0.837973 2.299052,1.582837 0.587297,0.744864 0.587297,1.704593 0,1.217567 -0.952567,2.098512 -0.945405,0.873783 -2.406485,0.873783 -0.458378,0 -0.866621,-0.09311 -0.408243,-0.09311 -1.024188,-0.350945 -0.343784,-0.143244 -0.56581,-0.143244 -0.186217,0 -0.393919,0.143244 -0.207703,0.143243 -0.336621,0.436891 h -0.265 v -3.667024 h 0.265 q 0.315134,1.547026 1.210404,2.363512 0.902432,0.809323 1.940945,0.809323 0.802161,0 1.274864,-0.436891 0.479864,-0.436892 0.479864,-1.017027 0,-0.343783 -0.186216,-0.66608 -0.179054,-0.322297 -0.551486,-0.608783 -0.372432,-0.293649 -1.317837,-0.759189 -1.324999,-0.651756 -1.905134,-1.110134 -0.580134,-0.458378 -0.895269,-1.024189 -0.307973,-0.56581 -0.307973,-1.246215 0,-1.16027 0.852297,-1.976756 0.852296,-0.816485 2.148647,-0.816485 0.472702,0 0.916756,0.114594 0.336621,0.08595 0.816486,0.322297 0.487026,0.229189 0.680405,0.229189 0.186216,0 0.293648,-0.114594 0.107432,-0.114595 0.20054,-0.551486 z"
           style="font-style:normal;font-variant:normal;font-weight:bold;font-stretch:normal;font-size:14.6680975px;font-family:'Times New Roman';-inkscape-font-specification:'Times New Roman, Bold';font-variant-ligatures:normal;font-variant-caps:normal;font-variant-numeric:normal;font-feature-settings:normal;text-align:start;writing-mode:lr-tb;text-anchor:start;fill:#fffffa;fill-opacity:1;stroke-width:0.10036898"
           id="path959" />
        <path
           d="m 84.211988,46.3814 v 2.628512 H 83.95415 q -0.229189,-0.909594 -0.508513,-1.303513 -0.279324,-0.40108 -0.766351,-0.637431 -0.272162,-0.128919 -0.952567,-0.128919 h -0.723378 v 7.491616 q 0,0.744864 0.07878,0.93108 0.08595,0.186216 0.322297,0.32946 0.243513,0.136081 0.658919,0.136081 h 0.322297 v 0.264999 h -5.085132 v -0.264999 h 0.322297 q 0.422567,0 0.680405,-0.150406 0.186216,-0.10027 0.293649,-0.343783 0.07878,-0.171892 0.07878,-0.902432 v -7.491616 h -0.701891 q -0.981216,0 -1.425269,0.415405 -0.623108,0.580135 -0.787838,1.654458 H 75.48848 V 46.3814 Z"
           style="font-style:normal;font-variant:normal;font-weight:bold;font-stretch:normal;font-size:14.6680975px;font-family:'Times New Roman';-inkscape-font-specification:'Times New Roman, Bold';font-variant-ligatures:normal;font-variant-caps:normal;font-variant-numeric:normal;font-feature-settings:normal;text-align:start;writing-mode:lr-tb;text-anchor:start;fill:#fffffa;fill-opacity:1;stroke-width:0.10036898"
           id="path961" />
      </g>
    </g>
  </g>
</svg>
