<?xml version="1.0" encoding="UTF-8" standalone="no"?>
<!-- Created with Inkscape (http://www.inkscape.org/) -->

<svg
   xmlns:dc="http://purl.org/dc/elements/1.1/"
   xmlns:cc="http://creativecommons.org/ns#"
   xmlns:rdf="http://www.w3.org/1999/02/22-rdf-syntax-ns#"
   xmlns:svg="http://www.w3.org/2000/svg"
   xmlns="http://www.w3.org/2000/svg"
   xmlns:sodipodi="http://sodipodi.sourceforge.net/DTD/sodipodi-0.dtd"
   xmlns:inkscape="http://www.inkscape.org/namespaces/inkscape"
   width="370"
   height="94"
   viewBox="0 0 97.895835 24.870815"
   version="1.1"
   id="svg8"
   sodipodi:docname="logo.svg"
   inkscape:version="0.92.3 (2405546, 2018-03-11)">
  <defs
     id="defs2" />
  <sodipodi:namedview
     id="base"
     pagecolor="#ffffff"
     bordercolor="#666666"
     borderopacity="1.0"
     inkscape:pageopacity="0.0"
     inkscape:pageshadow="2"
     inkscape:zoom="1.979899"
     inkscape:cx="147.04992"
     inkscape:cy="31.954423"
     inkscape:document-units="mm"
     inkscape:current-layer="text21"
     showgrid="false"
     inkscape:window-width="2498"
     inkscape:window-height="1057"
     inkscape:window-x="-8"
     inkscape:window-y="-8"
     inkscape:window-maximized="1"
     fit-margin-top="0"
     fit-margin-left="0"
     fit-margin-right="0"
     fit-margin-bottom="0"
     units="px" />
  <metadata
     id="metadata5">
    <rdf:RDF>
      <cc:Work
         rdf:about="">
        <dc:format>image/svg+xml</dc:format>
        <dc:type
           rdf:resource="http://purl.org/dc/dcmitype/StillImage" />
        <dc:title></dc:title>
      </cc:Work>
    </rdf:RDF>
  </metadata>
  <g
     inkscape:label="Layer 1"
     inkscape:groupmode="layer"
     id="layer1"
     transform="translate(-45.661885,-32.377113)">
    <g
       aria-label="Honey Waffle"
       style="font-style:normal;font-variant:normal;font-weight:bold;font-stretch:normal;font-size:25.39999962px;line-height:1.25;font-family:BenchNine;-inkscape-font-specification:'BenchNine, Bold';font-variant-ligatures:normal;font-variant-caps:normal;font-variant-numeric:normal;font-feature-settings:normal;text-align:start;letter-spacing:0px;word-spacing:0px;writing-mode:lr-tb;text-anchor:start;fill:#000000;fill-opacity:1;stroke:none;stroke-width:0.26458332"
       id="text21">
      <g
         aria-label="INKBLOT 
TEST"
         style="font-style:normal;font-variant:normal;font-weight:bold;font-stretch:normal;font-size:14.6680975px;line-height:1.25;font-family:'Times New Roman';-inkscape-font-specification:'Times New Roman, Bold';font-variant-ligatures:normal;font-variant-caps:normal;font-variant-numeric:normal;font-feature-settings:normal;text-align:start;letter-spacing:0px;word-spacing:0px;writing-mode:lr-tb;text-anchor:start;fill:#ffffff;fill-opacity:1;stroke:none;stroke-width:0.10036898"
         id="text826">
        <path
           d="m 65.78623,43.133164 v 0.265 h -5.077969 v -0.265 h 0.322297 q 0.422567,0 0.680405,-0.150405 0.186216,-0.10027 0.286486,-0.343783 0.07878,-0.171892 0.07878,-0.902432 V 35.3479 q 0,-0.744864 -0.07878,-0.931081 -0.07878,-0.186216 -0.322297,-0.322297 -0.236351,-0.143243 -0.644594,-0.143243 h -0.322297 v -0.265 h 5.077969 v 0.265 h -0.322297 q -0.422567,0 -0.680405,0.150406 -0.186216,0.10027 -0.293648,0.343783 -0.07878,0.171892 -0.07878,0.902432 v 6.388644 q 0,0.744864 0.07878,0.93108 0.08595,0.186216 0.322297,0.329459 0.243513,0.136081 0.651756,0.136081 z"
           style="font-style:normal;font-variant:normal;font-weight:bold;font-stretch:normal;font-size:14.6680975px;font-family:'Times New Roman';-inkscape-font-specification:'Times New Roman, Bold';font-variant-ligatures:normal;font-variant-caps:normal;font-variant-numeric:normal;font-feature-settings:normal;text-align:center;writing-mode:lr-tb;text-anchor:middle;fill:#ffffff;fill-opacity:1;stroke-width:0.10036898"
           id="path964" />
        <path
           d="m 69.76839,33.686279 4.791483,6.023374 v -4.175537 q 0,-0.873783 -0.250676,-1.181756 -0.343783,-0.415405 -1.153107,-0.401081 v -0.265 h 3.208646 v 0.265 q -0.615945,0.07878 -0.83081,0.207703 -0.207703,0.121756 -0.329459,0.408243 -0.114595,0.279324 -0.114595,0.966891 v 8.086075 h -0.243513 l -6.567698,-8.086075 v 6.173779 q 0,0.837973 0.379594,1.131621 0.386757,0.293648 0.880946,0.293648 h 0.229189 v 0.265 h -3.444998 v -0.265 q 0.802162,-0.0072 1.117297,-0.329459 0.315134,-0.322297 0.315134,-1.09581 V 34.853711 L 67.548121,34.595873 Q 67.240148,34.209117 67.003797,34.08736 66.767446,33.965604 66.323392,33.951279 v -0.265 z"
           style="font-style:normal;font-variant:normal;font-weight:bold;font-stretch:normal;font-size:14.6680975px;font-family:'Times New Roman';-inkscape-font-specification:'Times New Roman, Bold';font-variant-ligatures:normal;font-variant-caps:normal;font-variant-numeric:normal;font-feature-settings:normal;text-align:center;writing-mode:lr-tb;text-anchor:middle;fill:#ffffff;fill-opacity:1;stroke-width:0.10036898"
           id="path966" />
        <path
           d="m 82.825002,37.403439 3.416349,4.275808 q 0.723377,0.902431 1.246215,1.224728 0.379594,0.229189 0.802162,0.229189 v 0.265 h -5.056483 v -0.265 q 0.479864,-0.04297 0.615945,-0.150405 0.143243,-0.107432 0.143243,-0.265 0,-0.30081 -0.658918,-1.13162 l -2.227431,-2.800404 -0.358108,0.300811 v 2.649998 q 0,0.759188 0.08595,0.945405 0.08595,0.186216 0.329459,0.322297 0.243514,0.128918 0.780675,0.128918 v 0.265 h -4.898915 v -0.265 h 0.322297 q 0.422567,0 0.680405,-0.150405 0.186216,-0.10027 0.286486,-0.343783 0.07878,-0.171892 0.07878,-0.902432 V 35.3479 q 0,-0.744864 -0.07878,-0.931081 -0.07878,-0.186216 -0.322297,-0.322297 -0.236351,-0.143243 -0.644594,-0.143243 h -0.322297 v -0.265 h 4.834456 v 0.265 q -0.494189,0 -0.752026,0.143243 -0.186217,0.100271 -0.293649,0.336622 -0.08595,0.179054 -0.08595,0.916756 v 3.02243 l 3.602565,-2.914998 q 0.752027,-0.608783 0.752027,-0.974053 0,-0.272162 -0.307973,-0.42973 -0.157568,-0.07878 -0.780675,-0.10027 v -0.265 h 3.788781 v 0.265 q -0.508513,0.03581 -0.802162,0.186216 -0.286486,0.143243 -1.332161,0.988378 z"
           style="font-style:normal;font-variant:normal;font-weight:bold;font-stretch:normal;font-size:14.6680975px;font-family:'Times New Roman';-inkscape-font-specification:'Times New Roman, Bold';font-variant-ligatures:normal;font-variant-caps:normal;font-variant-numeric:normal;font-feature-settings:normal;text-align:center;writing-mode:lr-tb;text-anchor:middle;fill:#ffffff;fill-opacity:1;stroke-width:0.10036898"
           id="path968" />
        <path
           d="m 94.642562,38.248573 q 1.382296,0.322297 1.940944,0.780676 0.802162,0.651756 0.802162,1.690269 0,1.09581 -0.880945,1.812025 -1.081486,0.866621 -3.144187,0.866621 h -4.934727 v -0.265 q 0.673243,0 0.909594,-0.121756 0.243514,-0.128919 0.336622,-0.329459 0.10027,-0.200541 0.10027,-0.988378 v -6.302698 q 0,-0.787837 -0.10027,-0.988378 -0.09311,-0.207702 -0.336622,-0.329459 -0.243513,-0.121757 -0.909594,-0.121757 v -0.265 h 4.655403 q 1.668782,0 2.363511,0.300811 0.69473,0.293648 1.09581,0.888107 0.401081,0.587297 0.401081,1.253378 0,0.701891 -0.508513,1.253377 -0.508513,0.544324 -1.790539,0.866621 z m -2.607025,-0.193378 q 1.017026,0 1.49689,-0.229189 0.487027,-0.229189 0.744865,-0.644594 0.257837,-0.415405 0.257837,-1.059999 0,-0.644594 -0.257837,-1.052837 -0.250676,-0.415405 -0.723378,-0.63027 -0.472702,-0.214865 -1.518377,-0.207703 z m 0,0.558648 v 3.115539 l -0.0072,0.358108 q 0,0.386756 0.193379,0.587296 0.20054,0.193379 0.587297,0.193379 0.572972,0 1.052837,-0.250676 0.487026,-0.257837 0.744864,-0.737702 0.257838,-0.487027 0.257838,-1.081486 0,-0.680405 -0.315135,-1.217566 -0.315135,-0.544324 -0.866621,-0.759189 -0.551486,-0.214865 -1.647296,-0.207703 z"
           style="font-style:normal;font-variant:normal;font-weight:bold;font-stretch:normal;font-size:14.6680975px;font-family:'Times New Roman';-inkscape-font-specification:'Times New Roman, Bold';font-variant-ligatures:normal;font-variant-caps:normal;font-variant-numeric:normal;font-feature-settings:normal;text-align:center;writing-mode:lr-tb;text-anchor:middle;fill:#ffffff;fill-opacity:1;stroke-width:0.10036898"
           id="path970" />
        <path
           d="m 107.17633,39.988978 -0.36527,3.409186 h -8.623233 v -0.265 h 0.322297 q 0.422568,0 0.680405,-0.150405 0.186216,-0.10027 0.286487,-0.343783 0.07878,-0.171892 0.07878,-0.902432 V 35.3479 q 0,-0.744864 -0.07878,-0.931081 -0.07878,-0.186216 -0.322297,-0.322297 -0.236352,-0.143243 -0.644595,-0.143243 h -0.322297 v -0.265 h 5.178243 v 0.265 h -0.42257 q -0.42257,0 -0.68041,0.150406 -0.18621,0.10027 -0.29364,0.343783 -0.0788,0.171892 -0.0788,0.902432 v 6.188103 q 0,0.744865 0.0859,0.952567 0.0859,0.200541 0.33662,0.300811 0.17905,0.06446 0.86662,0.06446 h 0.80932 q 0.77352,0 1.28919,-0.272162 0.51568,-0.272162 0.88811,-0.859458 0.37959,-0.587297 0.71622,-1.733242 z"
           style="font-style:normal;font-variant:normal;font-weight:bold;font-stretch:normal;font-size:14.6680975px;font-family:'Times New Roman';-inkscape-font-specification:'Times New Roman, Bold';font-variant-ligatures:normal;font-variant-caps:normal;font-variant-numeric:normal;font-feature-settings:normal;text-align:center;writing-mode:lr-tb;text-anchor:middle;fill:#ffffff;fill-opacity:1;stroke-width:0.10036898"
           id="path972" />
        <path
           d="m 113.37876,33.550198 q 2.32054,-0.08595 3.7673,1.353648 1.45392,1.439594 1.45392,3.602565 0,1.847837 -1.08149,3.251619 -1.43243,1.862161 -4.04662,1.862161 -2.62135,0 -4.05378,-1.776215 -1.13162,-1.403783 -1.13162,-3.330403 0,-2.162971 1.46824,-3.602565 1.47541,-1.446755 3.62405,-1.36081 z m 0.0859,0.458378 q -1.33216,0 -2.02689,1.36081 -0.56581,1.117297 -0.56581,3.208647 0,2.485268 0.87378,3.674186 0.60879,0.83081 1.7046,0.83081 0.7377,0 1.23189,-0.358107 0.63027,-0.458379 0.98121,-1.461081 0.35095,-1.009864 0.35095,-2.628511 0,-1.92662 -0.35811,-2.879187 -0.35811,-0.959729 -0.91676,-1.353648 -0.55148,-0.393919 -1.27486,-0.393919 z"
           style="font-style:normal;font-variant:normal;font-weight:bold;font-stretch:normal;font-size:14.6680975px;font-family:'Times New Roman';-inkscape-font-specification:'Times New Roman, Bold';font-variant-ligatures:normal;font-variant-caps:normal;font-variant-numeric:normal;font-feature-settings:normal;text-align:center;writing-mode:lr-tb;text-anchor:middle;fill:#ffffff;fill-opacity:1;stroke-width:0.10036898"
           id="path974" />
        <path
           d="m 128.36916,33.686279 v 2.628512 h -0.25784 q -0.22919,-0.909594 -0.50851,-1.303513 -0.27933,-0.40108 -0.76635,-0.637432 -0.27217,-0.128918 -0.95257,-0.128918 h -0.72338 v 7.491616 q 0,0.744864 0.0788,0.93108 0.0859,0.186216 0.32229,0.329459 0.24352,0.136081 0.65892,0.136081 h 0.3223 v 0.265 h -5.08513 v -0.265 h 0.32229 q 0.42257,0 0.68041,-0.150405 0.18621,-0.10027 0.29365,-0.343783 0.0788,-0.171892 0.0788,-0.902432 v -7.491616 h -0.70189 q -0.98122,0 -1.42527,0.415405 -0.62311,0.580134 -0.78784,1.654458 h -0.27216 v -2.628512 z"
           style="font-style:normal;font-variant:normal;font-weight:bold;font-stretch:normal;font-size:14.6680975px;font-family:'Times New Roman';-inkscape-font-specification:'Times New Roman, Bold';font-variant-ligatures:normal;font-variant-caps:normal;font-variant-numeric:normal;font-feature-settings:normal;text-align:center;writing-mode:lr-tb;text-anchor:middle;fill:#ffffff;fill-opacity:1;stroke-width:0.10036898"
           id="path976" />
        <path
           d="m 85.138378,46.3814 v 2.628512 h -0.257837 q -0.229189,-0.909594 -0.508513,-1.303513 -0.279324,-0.40108 -0.766351,-0.637431 -0.272162,-0.128919 -0.952567,-0.128919 h -0.723378 v 7.491616 q 0,0.744864 0.07878,0.93108 0.08595,0.186216 0.322297,0.32946 0.243513,0.136081 0.658918,0.136081 h 0.322297 v 0.264999 h -5.085131 v -0.264999 h 0.322297 q 0.422567,0 0.680405,-0.150406 0.186216,-0.10027 0.293648,-0.343783 0.07878,-0.171892 0.07878,-0.902432 V 46.940049 H 78.90014 q -0.981216,0 -1.42527,0.415405 -0.623107,0.580135 -0.787837,1.654458 H 76.414871 V 46.3814 Z"
           style="font-style:normal;font-variant:normal;font-weight:bold;font-stretch:normal;font-size:14.6680975px;font-family:'Times New Roman';-inkscape-font-specification:'Times New Roman, Bold';font-variant-ligatures:normal;font-variant-caps:normal;font-variant-numeric:normal;font-feature-settings:normal;text-align:center;writing-mode:lr-tb;text-anchor:middle;fill:#ffffff;fill-opacity:1;stroke-width:0.10036898"
           id="path978" />
        <path
           d="m 89.679186,46.940049 v 3.95351 h 0.193378 q 0.923918,0 1.339323,-0.580134 0.415406,-0.580135 0.53,-1.711756 h 0.272162 v 5.085132 h -0.272162 q -0.08595,-0.830811 -0.36527,-1.36081 -0.272162,-0.53 -0.637432,-0.709054 -0.36527,-0.186216 -1.059999,-0.186216 v 2.735944 q 0,0.802162 0.06446,0.981216 0.07162,0.179054 0.257838,0.293648 0.186216,0.114595 0.601621,0.114595 h 0.580135 q 1.36081,0 2.177296,-0.63027 0.823648,-0.63027 1.181755,-1.919458 h 0.265 l -0.436891,3.086889 h -8.394048 v -0.264999 h 0.322297 q 0.422567,0 0.680405,-0.150406 0.186216,-0.10027 0.286486,-0.343783 0.07878,-0.171892 0.07878,-0.902432 v -6.388644 q 0,-0.658919 -0.03581,-0.809324 -0.07162,-0.250675 -0.265,-0.386756 Q 86.77135,46.6464 86.298648,46.6464 h -0.322297 v -0.265 h 8.129048 v 2.872025 H 93.833237 Q 93.625534,48.200588 93.24594,47.74221 92.873508,47.283832 92.185941,47.068968 91.78486,46.940049 90.681888,46.940049 Z"
           style="font-style:normal;font-variant:normal;font-weight:bold;font-stretch:normal;font-size:14.6680975px;font-family:'Times New Roman';-inkscape-font-specification:'Times New Roman, Bold';font-variant-ligatures:normal;font-variant-caps:normal;font-variant-numeric:normal;font-feature-settings:normal;text-align:center;writing-mode:lr-tb;text-anchor:middle;fill:#ffffff;fill-opacity:1;stroke-width:0.10036898"
           id="path980" />
        <path
           d="m 102.37053,46.159374 0.0788,3.237295 h -0.29365 q -0.2077,-1.217567 -1.02419,-1.955269 -0.80932,-0.744865 -1.754724,-0.744865 -0.73054,0 -1.160269,0.393919 -0.422567,0.386756 -0.422567,0.89527 0,0.322297 0.150405,0.572972 0.207702,0.336622 0.66608,0.666081 0.336622,0.236351 1.554185,0.837972 1.7046,0.837973 2.29906,1.582837 0.58729,0.744864 0.58729,1.704593 0,1.217567 -0.95256,2.098512 -0.94541,0.873783 -2.406489,0.873783 -0.458378,0 -0.866621,-0.09311 -0.408243,-0.09311 -1.024188,-0.350945 -0.343784,-0.143244 -0.565811,-0.143244 -0.186216,0 -0.393918,0.143244 -0.207703,0.143243 -0.336622,0.436891 h -0.265 v -3.667024 h 0.265 q 0.315135,1.547026 1.210405,2.363512 0.902432,0.809323 1.940944,0.809323 0.80216,0 1.27486,-0.436891 0.47987,-0.436892 0.47987,-1.017027 0,-0.343783 -0.18622,-0.66608 -0.17905,-0.322297 -0.55148,-0.608783 -0.37244,-0.293649 -1.31784,-0.759189 -1.324999,-0.651756 -1.905134,-1.110134 -0.580135,-0.458378 -0.89527,-1.024189 -0.307972,-0.56581 -0.307972,-1.246215 0,-1.16027 0.852296,-1.976756 0.852297,-0.816485 2.148647,-0.816485 0.472703,0 0.916753,0.114594 0.33662,0.08595 0.81649,0.322297 0.48703,0.229189 0.6804,0.229189 0.18622,0 0.29365,-0.114594 0.10744,-0.114595 0.20054,-0.551486 z"
           style="font-style:normal;font-variant:normal;font-weight:bold;font-stretch:normal;font-size:14.6680975px;font-family:'Times New Roman';-inkscape-font-specification:'Times New Roman, Bold';font-variant-ligatures:normal;font-variant-caps:normal;font-variant-numeric:normal;font-feature-settings:normal;text-align:center;writing-mode:lr-tb;text-anchor:middle;fill:#ffffff;fill-opacity:1;stroke-width:0.10036898"
           id="path982" />
        <path
           d="m 112.8989,46.3814 v 2.628512 h -0.25784 q -0.22919,-0.909594 -0.50851,-1.303513 -0.27933,-0.40108 -0.76635,-0.637431 -0.27216,-0.128919 -0.95257,-0.128919 h -0.72338 v 7.491616 q 0,0.744864 0.0788,0.93108 0.0859,0.186216 0.32229,0.32946 0.24352,0.136081 0.65892,0.136081 h 0.3223 v 0.264999 h -5.08513 v -0.264999 h 0.32229 q 0.42257,0 0.68041,-0.150406 0.18622,-0.10027 0.29365,-0.343783 0.0788,-0.171892 0.0788,-0.902432 v -7.491616 h -0.70189 q -0.98121,0 -1.42527,0.415405 -0.62311,0.580135 -0.78784,1.654458 h -0.27216 V 46.3814 Z"
           style="font-style:normal;font-variant:normal;font-weight:bold;font-stretch:normal;font-size:14.6680975px;font-family:'Times New Roman';-inkscape-font-specification:'Times New Roman, Bold';font-variant-ligatures:normal;font-variant-caps:normal;font-variant-numeric:normal;font-feature-settings:normal;text-align:center;writing-mode:lr-tb;text-anchor:middle;fill:#ffffff;fill-opacity:1;stroke-width:0.10036898"
           id="path984" />
      </g>
    </g>
  </g>
</svg>
